<?xml version="1.0" encoding="UTF-8"?>
<svg width="92px" height="74px" viewBox="0 0 92 74" version="1.1" xmlns="http://www.w3.org/2000/svg" xmlns:xlink="http://www.w3.org/1999/xlink">
    <!-- Generator: Sketch 47.1 (45422) - http://www.bohemiancoding.com/sketch -->
    <title>camera</title>
    <desc>Created with Sketch.</desc>
    <defs></defs>
    <g id="Page-1" stroke="none" stroke-width="1" fill="none" fill-rule="evenodd">
        <g id="Main--Copy" transform="translate(-1193.000000, -882.000000)" fill-rule="nonzero">
            <g id="camera" transform="translate(1193.000000, 882.000000)">
                <path d="M84.362772,10.2195029 L68.9321682,10.2195029 L62.4064828,0.775208427 C62.0713669,0.289852758 61.5179316,0 60.9265823,0 L31.0734177,0 C30.4820684,0 29.9288128,0.289852758 29.5935172,0.775208427 L23.0672927,10.2195029 L18.0128828,10.2195029 L18.0128828,4.84997605 C18.0128828,3.86154055 17.2082453,3.05965636 16.2160148,3.05965636 L7.63686861,3.05965636 C6.64463811,3.05965636 5.84000062,3.86154055 5.84000062,4.84997605 L5.84000062,10.4343412 C2.4935137,11.2415964 0,14.2496915 0,17.8287196 L0,63.4811557 C0,67.677307 3.42572881,71.0907305 7.63686861,71.0907305 L37.5892204,71.0907305 C41.7642431,72.9591081 46.3901,74 51.2556592,74 C56.1212183,74 60.7472549,72.9591081 64.9222776,71.0907305 L84.362772,71.0907305 C88.5740915,71.0907305 92,67.677307 92,63.4811557 L92,17.8287196 C92,13.6329264 88.5740915,10.2195029 84.362772,10.2195029 Z M32.0180312,3.58063939 L59.9823282,3.58063939 L64.416639,9.99821936 C60.3747642,8.26930763 55.925719,7.30987531 51.2556592,7.30987531 C46.3897407,7.30987531 41.763704,8.35076718 37.5885016,10.2195029 L27.4304475,10.2195029 L32.0180312,3.58063939 Z M9.43373659,6.64029574 L14.4193265,6.64029574 L14.4193265,10.2195029 L9.43373659,10.2195029 L9.43373659,6.64029574 Z M7.63686861,67.5100911 C5.4074945,67.5100911 3.59373596,65.7025844 3.59373596,63.4811557 L3.59373596,17.8287196 C3.59373596,15.607291 5.4074945,13.8001423 7.63686861,13.8001423 L31.4410569,13.8001423 C23.1671986,19.8766663 17.7888133,29.6510957 17.7888133,40.6549377 C17.7888133,51.6589586 23.1675579,61.433567 31.4415959,67.5100911 L7.63686861,67.5100911 Z M51.2556592,70.4193606 C34.7835907,70.4193606 21.3825493,57.0671563 21.3825493,40.6549377 C21.3825493,24.242719 34.7835907,10.8905147 51.2556592,10.8905147 C67.728087,10.8905147 81.1293081,24.242719 81.1293081,40.6549377 C81.1293081,57.0671563 67.728087,70.4193606 51.2556592,70.4193606 Z M88.4064437,63.4811557 L88.406264,63.4811557 C88.406264,65.7025844 86.5923258,67.5100911 84.362772,67.5100911 L71.0700818,67.5100911 C79.3442994,61.433567 84.7230441,51.6589586 84.7230441,40.6549377 C84.7230441,29.6510957 79.3444791,19.8766663 71.0706208,13.8001423 L84.3629517,13.8001423 C86.5925055,13.8001423 88.4064437,15.607291 88.4064437,17.8287196 L88.4064437,63.4811557 Z" id="Shape" fill="#000000"></path>
                <path d="M13.3236323,60.5745303 L10.3524001,60.5745303 L10.3524001,52.7127348 C10.3524001,51.7667914 9.60179772,51 8.67620005,51 C7.75060238,51 7,51.7667914 7,52.7127348 L7,62.2872652 C7,63.2332086 7.75060238,64 8.67620005,64 L13.3237999,64 C14.2493976,64 15,63.2332086 15,62.2872652 C14.9998324,61.3416643 14.2493976,60.5745303 13.3236323,60.5745303 Z" id="Shape" fill="#000000"></path>
                <path d="M8.5,46 C7.6717,46 7,46.6560348 7,47.4653446 L7,47.5346554 C7,48.3438187 7.67155,49 8.5,49 C9.3283,49 10,48.3436722 10,47.5346554 L10,47.4653446 C10,46.6560348 9.3283,46 8.5,46 Z" id="Shape" fill="#FE8C24"></path>
                <path d="M51.4999094,15 C36.887864,15 25,26.6633653 25,40.9998222 C25,55.3362791 36.887864,67 51.4999094,67 C66.112136,67 78,55.3362791 78,40.9998222 C78,26.6633653 66.112136,15 51.4999094,15 Z M51.4999094,63.4432285 C38.8868175,63.4432285 28.625233,53.3752531 28.625233,40.9998222 C28.625233,28.6247469 38.8868175,18.5567715 51.4999094,18.5567715 C64.1131825,18.5567715 74.374767,28.6247469 74.374767,40.9998222 C74.374767,53.3752531 64.1131825,63.4432285 51.4999094,63.4432285 Z" id="Shape" fill="#000000"></path>
                <path d="M67.1285296,29.2355802 C64.645937,25.8288609 61.2484628,23.3559852 57.3036885,22.0840758 C56.3712777,21.7840152 55.3765409,22.3124694 55.0824401,23.2656775 C54.7883394,24.2188857 55.30607,25.2356169 56.2384809,25.5360394 C62.9496788,27.6992627 67.4587511,33.9904003 67.4587511,41.1902256 C67.4587511,42.1894021 68.2516367,43 69.2293755,43 C70.2071144,43 71,42.1894021 71,41.1902256 C71.0001771,36.8447764 69.6614079,32.7110708 67.1285296,29.2355802 Z" id="Shape" fill="#FE8C24"></path>
                <path d="M50.5859757,21.0005999 L50.4262372,21 C49.638669,21 49,21.6714157 49,22.4997001 C49,23.3276845 49.638669,23.9994001 50.4262372,23.9994001 L50.5614444,24 C50.5655805,24 50.5698592,24 50.5739953,24 C51.3558585,24 51.9931013,23.3371326 51.9999472,22.5131974 C52.0066506,21.685213 51.3736865,21.0079484 50.5859757,21.0005999 Z" id="Shape" fill="#000000"></path>
                <path d="M15.4999083,17 C12.4672589,17 10,19.4674833 10,22.5003667 C10,25.5328833 12.4672589,28 15.4999083,28 C18.5327411,28 21,25.5328833 21,22.5003667 C21,19.4674833 18.5327411,17 15.4999083,17 Z M15.4999083,24.3333333 C14.4890252,24.3333333 13.6666056,23.5112667 13.6666056,22.5003667 C13.6666056,21.4891 14.4890252,20.6666667 15.4999083,20.6666667 C16.5109748,20.6666667 17.3333944,21.4891 17.3333944,22.5003667 C17.3333944,23.5110833 16.5109748,24.3333333 15.4999083,24.3333333 Z" id="Shape" fill="#FE8C24"></path>
            </g>
        </g>
    </g>
</svg>