<?xml version="1.0" encoding="UTF-8"?>
<svg width="73px" height="100px" viewBox="0 0 73 100" version="1.1" xmlns="http://www.w3.org/2000/svg" xmlns:xlink="http://www.w3.org/1999/xlink">
    <!-- Generator: Sketch 47.1 (45422) - http://www.bohemiancoding.com/sketch -->
    <title>clothes</title>
    <desc>Created with Sketch.</desc>
    <defs></defs>
    <g id="Page-1" stroke="none" stroke-width="1" fill="none" fill-rule="evenodd">
        <g id="Main--Copy" transform="translate(-206.000000, -906.000000)" fill-rule="nonzero">
            <g id="clothes" transform="translate(206.000000, 906.000000)">
                <path d="M29.4065422,51.5093549 L18.51617,51.5093549 L18.51617,3.49064507 L25.2447828,3.49064507 C26.1025373,8.82318719 30.8226799,12.9144559 36.5000508,12.9144559 C42.1774217,12.9144559 46.8975643,8.82318719 47.7555562,3.49064507 L54.4834568,3.49064507 L54.4834568,30.2175835 C54.4834568,31.181467 55.2806723,31.9629061 56.2640155,31.9629061 C57.2473588,31.9629061 58.0445743,31.181467 58.0445743,30.2175835 L58.0445743,25.5128921 L61.8765741,27.3908592 C62.1308379,27.5155915 62.4029073,27.5751652 62.6718904,27.5751652 C63.2350218,27.5751652 63.7841461,27.3131341 64.1276752,26.8360793 L72.6741198,14.9685842 C73.2092371,14.2253095 73.0722527,13.203714 72.359317,12.6212417 L57.410458,0.41073257 C57.1006407,0.154751931 56.700846,0 56.2640155,0 L16.7356113,0 C16.2980686,0 15.8980364,0.155217351 15.5879818,0.411896118 L0.640784621,12.6212417 C-0.0721511024,13.203714 -0.20937283,14.2253095 0.325981834,14.9685842 L8.87242643,26.8360793 C9.21595556,27.3129014 9.76507988,27.5751652 10.3282113,27.5751652 C10.5969569,27.5751652 10.8690263,27.5153588 11.1235275,27.3908592 L14.9552899,25.5128921 L14.9552899,53.2546775 C14.9552899,54.2185609 15.7525054,55 16.7358487,55 L29.4067796,55 C30.3901228,55 31.1873383,54.2185609 31.1873383,53.2546775 C31.1873383,52.290794 30.3898854,51.5093549 29.4065422,51.5093549 Z M62.1004497,23.5979242 L58.0445743,21.6101182 L58.0445743,5.47263334 L68.8167173,14.2716187 L62.1004497,23.5979242 Z M36.5000508,9.42381085 C32.7929275,9.42381085 29.681223,6.88611189 28.8723745,3.49064507 L44.1277271,3.49064507 C43.3188786,6.8863446 40.2071741,9.42381085 36.5000508,9.42381085 Z M10.8991771,23.5979242 L4.1829095,14.2716187 L14.9550525,5.47263334 L14.9550525,21.6101182 L10.8991771,23.5979242 Z" id="Shape" fill="#000000"></path>
                <path d="M71.2362327,34 L35.7642375,34 C34.789908,34 34,34.7935862 34,35.7724529 L34,98.2275471 C34,99.2064138 34.789908,100 35.7642375,100 L49.3491018,100 C50.2853239,100 51.0587656,99.2652592 51.1105166,98.3258592 L53.4999999,55.1378002 L55.8894832,98.3258592 C55.9414694,99.2650229 56.7146759,100 57.650898,100 L71.2357623,100 C72.2100918,100 72.9999998,99.2064138 72.9999998,98.2275471 L72.9999998,35.7724529 C73.0004703,34.7933499 72.2105623,34 71.2362327,34 Z M70,42 L64,42 L64,38 L70,38 L70,42 Z M47,42 L47,38 L61,38 L61,42 L47,42 Z M44,38 L44,42 L38,42 L38,38 L44,38 Z M59.830157,96 L57.4277298,52.9944273 C57.3756517,52.0625414 56.6010781,51.3332598 55.6632007,51.3332598 L52.3365637,51.3332598 C51.3986863,51.3332598 50.623877,52.0623069 50.5720345,52.9944273 L48.169843,96 L38,96 L38,45 L70,45 L70,96 L59.830157,96 Z" id="Shape" fill="#FE8C24"></path>
            </g>
        </g>
    </g>
</svg>