<?xml version="1.0" encoding="UTF-8"?>
<svg width="91px" height="91px" viewBox="0 0 91 91" version="1.1" xmlns="http://www.w3.org/2000/svg" xmlns:xlink="http://www.w3.org/1999/xlink">
    <!-- Generator: Sketch 47.1 (45422) - http://www.bohemiancoding.com/sketch -->
    <title>cosmetics</title>
    <desc>Created with Sketch.</desc>
    <defs></defs>
    <g id="Page-1" stroke="none" stroke-width="1" fill="none" fill-rule="evenodd">
        <g id="Main--Copy" transform="translate(-819.000000, -906.000000)" fill-rule="nonzero">
            <g id="cosmetics" transform="translate(819.000000, 906.000000)">
                <path d="M59,8 C45.2147059,8 34,19.2147059 34,33 C34,46.7852941 45.2147059,58 59,58 C72.7852941,58 84,46.7852941 84,33 C84,19.2147059 72.7852941,8 59,8 Z M59,55.0588235 C46.8367647,55.0588235 36.9411765,45.1632353 36.9411765,33 C36.9411765,20.8367647 46.8352941,10.9411765 59,10.9411765 C71.1647059,10.9411765 81.0588235,20.8367647 81.0588235,33 C81.0588235,45.1632353 71.1632353,55.0588235 59,55.0588235 Z" id="Shape" fill="#FE8C24"></path>
                <rect id="Rectangle-path" fill="#FE8C24" transform="translate(60.500000, 33.500000) rotate(-130.234003) translate(-60.500000, -33.500000) " x="59" y="21" width="3" height="25"></rect>
                <rect id="Rectangle-path" fill="#FE8C24" transform="translate(54.000000, 24.500000) rotate(-37.871466) translate(-54.000000, -24.500000) " x="46" y="23" width="16" height="3"></rect>
                <path d="M9,0 L6,0 L6,4.40322581 L0,4.40322581 L0,7.33870968 L6,7.33870968 L6,10.2741935 L0,10.2741935 L0,13.2096774 L6,13.2096774 L6,16.1451613 L0,16.1451613 L0,19.0806452 L6,19.0806452 L6,22.016129 L0,22.016129 L0,24.9516129 L6,24.9516129 L6,27.8870968 L0,27.8870968 L0,30.8225806 L6,30.8225806 L6,61.6451613 L4.5,61.6451613 C2.8455,61.6451613 1.5,62.9617258 1.5,64.5806452 L1.5,68.6609677 C0.5865,69.4682258 0,70.6233387 0,71.9193548 L0,86.5967742 C0,89.0244194 2.019,91 4.5,91 L10.5,91 C12.981,91 15,89.0244194 15,86.5967742 L15,71.9193548 C15,70.6233387 14.4135,69.4682258 13.5,68.6609677 L13.5,64.5806452 C13.5,62.9617258 12.153,61.6451613 10.5,61.6451613 L9,61.6451613 L9,30.8225806 L15,30.8225806 L15,27.8870968 L9,27.8870968 L9,24.9516129 L15,24.9516129 L15,22.016129 L9,22.016129 L9,19.0806452 L15,19.0806452 L15,16.1451613 L9,16.1451613 L9,13.2096774 L15,13.2096774 L15,10.2741935 L9,10.2741935 L9,7.33870968 L15,7.33870968 L15,4.40322581 L9,4.40322581 L9,0 Z M12,71.9193548 L12,86.5967742 C12,87.4069677 11.328,88.0645161 10.5,88.0645161 L4.5,88.0645161 C3.672,88.0645161 3,87.4069677 3,86.5967742 L3,71.9193548 C3,71.1091613 3.672,70.4516129 4.5,70.4516129 L10.5,70.4516129 C11.328,70.4516129 12,71.1091613 12,71.9193548 Z M10.5,64.5806452 L10.5,67.516129 L4.5,67.516129 L4.5,64.5806452 L10.5,64.5806452 Z" id="Shape" fill="#000000"></path>
                <path d="M91,32.2903226 C91,14.4851452 76.39388,0 58.44,0 C40.77472,0 26.361,14.0257419 25.9022,31.4375645 L25.38272,30.6655323 C24.65456,29.5823387 23.31664,29.1082581 22.06308,29.484 C20.80508,29.8612097 19.96,30.9899032 19.96,32.2932581 L19.96,51.779 C19.0794,52.2883065 18.48,53.2247258 18.48,54.3064516 L18.48,57.6499677 C17.5994,58.1592742 17,59.0956935 17,60.1774194 L17,88.0645161 C17,89.6834355 18.32756,91 19.96,91 L28.84,91 C30.47096,91 31.8,89.6834355 31.8,88.0645161 L31.8,60.1774194 C31.8,59.0956935 31.2006,58.1592742 30.32,57.6499677 L30.32,54.3064516 C30.32,53.2247258 29.7206,52.2883065 28.84,51.779 L28.84,45.7172258 C33.79356,56.4155968 44.4688,63.9862097 56.96,64.5439516 L56.96,88.0645161 L36.24,88.0645161 L36.24,91 L58.44,91 L80.64,91 L80.64,88.0645161 L59.92,88.0645161 L59.92,64.5439516 C77.18864,63.7733871 91,49.6038065 91,32.2903226 Z M22.92,32.2932581 L25.88,36.6964839 L25.88,51.3709677 L22.92,51.3709677 L22.92,32.2932581 Z M21.44,54.3064516 L27.36,54.3064516 L27.36,57.2419355 L21.44,57.2419355 L21.44,54.3064516 Z M28.84296,88.0645161 L19.96,88.0645161 L19.96,60.1774194 L28.84,60.1774194 L28.84296,88.0645161 Z M58.44,61.6451613 C42.11856,61.6451613 28.84,48.4765806 28.84,32.2903226 C28.84,16.1040645 42.11856,2.93548387 58.44,2.93548387 C74.76144,2.93548387 88.04,16.1040645 88.04,32.2903226 C88.04,48.4765806 74.76144,61.6451613 58.44,61.6451613 Z" id="Shape" fill="#000000"></path>
            </g>
        </g>
    </g>
</svg>