<?xml version="1.0" encoding="UTF-8"?>
<svg width="94px" height="88px" viewBox="0 0 94 88" version="1.1" xmlns="http://www.w3.org/2000/svg" xmlns:xlink="http://www.w3.org/1999/xlink">
    <!-- Generator: Sketch 47.1 (45422) - http://www.bohemiancoding.com/sketch -->
    <title>responsive</title>
    <desc>Created with Sketch.</desc>
    <defs></defs>
    <g id="Page-1" stroke="none" stroke-width="1" fill="none" fill-rule="evenodd">
        <g id="Main--Copy" transform="translate(-942.000000, -902.000000)" fill-rule="nonzero">
            <g id="responsive" transform="translate(942.000000, 902.000000)">
                <path d="M89.3,42.4285714 L89.3,7.85714286 C89.3,3.52471429 85.7859667,0 81.4666667,0 L12.5333333,0 C8.21403333,0 4.7,3.52471429 4.7,7.85714286 L4.7,31.4285714 C2.10873333,31.4285714 0,33.5437143 0,36.1428571 L0,83.2857143 C0,85.8848571 2.10873333,88 4.7,88 L39.1666667,88 C41.7579333,88 43.8666667,85.8848571 43.8666667,83.2857143 L56.9969,83.2857143 C58.4742667,83.2857143 59.8357,82.61 60.7318333,81.433 C61.6279667,80.256 61.9193667,78.76 61.5308333,77.3315714 L58.4507667,66 L67.3666667,66 L67.3666667,83.2857143 C67.3666667,85.8848571 69.4754,88 72.0666667,88 L89.3,88 C91.8912667,88 94,85.8848571 94,83.2857143 L94,47.1428571 C94,44.5437143 91.8912667,42.4285714 89.3,42.4285714 Z M40.7333333,83.2857143 C40.7333333,84.1515714 40.0299,84.8571429 39.1666667,84.8571429 L4.7,84.8571429 C3.83676667,84.8571429 3.13333333,84.1515714 3.13333333,83.2857143 L3.13333333,80.1428571 L40.7333333,80.1428571 L40.7333333,83.2857143 Z M40.7333333,77 L3.13333333,77 L3.13333333,42.4285714 L40.7333333,42.4285714 L40.7333333,77 Z M40.7333333,39.2857143 L3.13333333,39.2857143 L3.13333333,36.1428571 C3.13333333,35.277 3.83676667,34.5714286 4.7,34.5714286 L39.1666667,34.5714286 C40.0299,34.5714286 40.7333333,35.277 40.7333333,36.1428571 L40.7333333,39.2857143 Z M58.5087333,78.1581429 C58.6387667,78.6342857 58.5416333,79.1324286 58.2424,79.5252857 C57.9431667,79.9181429 57.4904,80.1428571 56.9969,80.1428571 L43.8666667,80.1428571 L43.8666667,77 L58.1938333,77 L58.5087333,78.1581429 Z M43.8666667,73.8571429 L43.8666667,66 L55.2030667,66 L57.34,73.8571429 L43.8666667,73.8571429 Z M67.3666667,62.8571429 L43.8666667,62.8571429 L43.8666667,53.4285714 L67.3666667,53.4285714 L67.3666667,62.8571429 Z M67.3666667,47.1428571 L67.3666667,50.2857143 L43.8666667,50.2857143 L43.8666667,36.1428571 C43.8666667,33.5437143 41.7579333,31.4285714 39.1666667,31.4285714 L7.83333333,31.4285714 L7.83333333,7.85714286 C7.83333333,5.258 9.94206667,3.14285714 12.5333333,3.14285714 L81.4666667,3.14285714 C84.0579333,3.14285714 86.1666667,5.258 86.1666667,7.85714286 L86.1666667,42.4285714 L72.0666667,42.4285714 C69.4754,42.4285714 67.3666667,44.5437143 67.3666667,47.1428571 Z M90.8666667,83.2857143 C90.8666667,84.1515714 90.1632333,84.8571429 89.3,84.8571429 L72.0666667,84.8571429 C71.2034333,84.8571429 70.5,84.1515714 70.5,83.2857143 L70.5,80.1428571 L90.8666667,80.1428571 L90.8666667,83.2857143 Z M90.8666667,77 L70.5,77 L70.5,53.4285714 L90.8666667,53.4285714 L90.8666667,77 Z M90.8666667,50.2857143 L70.5,50.2857143 L70.5,47.1428571 C70.5,46.277 71.2034333,45.5714286 72.0666667,45.5714286 L89.3,45.5714286 C90.1632333,45.5714286 90.8666667,46.277 90.8666667,47.1428571 L90.8666667,50.2857143 Z" id="Shape" fill="#000000"></path>
                <rect id="Rectangle-path" fill="#FE8C24" transform="translate(12.000000, 62.500000) rotate(-45.000000) translate(-12.000000, -62.500000) " x="7" y="61" width="10" height="3"></rect>
                <rect id="Rectangle-path" fill="#FE8C24" transform="translate(26.500000, 60.500000) rotate(-45.000000) translate(-26.500000, -60.500000) " x="13" y="59" width="27" height="3"></rect>
                <rect id="Rectangle-path" fill="#FE8C24" transform="translate(23.500000, 51.500000) rotate(-45.000000) translate(-23.500000, -51.500000) " x="17" y="50" width="13" height="3"></rect>
                <rect id="Rectangle-path" fill="#FE8C24" transform="translate(78.500000, 61.500000) rotate(-45.000000) translate(-78.500000, -61.500000) " x="73" y="60" width="11" height="3"></rect>
                <rect id="Rectangle-path" fill="#FE8C24" transform="translate(82.500000, 68.500000) rotate(-45.000000) translate(-82.500000, -68.500000) " x="77" y="67" width="11" height="3"></rect>
                <rect id="Rectangle-path" fill="#FE8C24" transform="translate(47.500000, 24.500000) rotate(-45.000000) translate(-47.500000, -24.500000) " x="41" y="23" width="13" height="3"></rect>
                <rect id="Rectangle-path" fill="#FE8C24" transform="translate(62.500000, 20.500000) rotate(-45.000000) translate(-62.500000, -20.500000) " x="56" y="19" width="13" height="3"></rect>
                <rect id="Rectangle-path" fill="#FE8C24" transform="translate(51.000000, 31.500000) rotate(-45.000000) translate(-51.000000, -31.500000) " x="46" y="30" width="10" height="3"></rect>
                <rect id="Rectangle-path" fill="#FE8C24" transform="translate(58.000000, 12.500000) rotate(-45.000000) translate(-58.000000, -12.500000) " x="53" y="11" width="10" height="3"></rect>
                <rect id="Rectangle-path" fill="#FE8C24" x="11" y="6" width="3" height="3"></rect>
                <rect id="Rectangle-path" fill="#FE8C24" x="17" y="6" width="3" height="3"></rect>
                <rect id="Rectangle-path" fill="#FE8C24" x="24" y="6" width="3" height="3"></rect>
            </g>
        </g>
    </g>
</svg>