<?xml version="1.0" encoding="UTF-8"?>
<svg width="92px" height="88px" viewBox="0 0 92 88" version="1.1" xmlns="http://www.w3.org/2000/svg" xmlns:xlink="http://www.w3.org/1999/xlink">
    <!-- Generator: Sketch 47.1 (45422) - http://www.bohemiancoding.com/sketch -->
    <title>gamepad</title>
    <desc>Created with Sketch.</desc>
    <defs></defs>
    <g id="Page-1" stroke="none" stroke-width="1" fill="none" fill-rule="evenodd">
        <g id="Main--Copy" transform="translate(-1064.000000, -875.000000)" fill-rule="nonzero">
            <g id="gamepad" transform="translate(1064.000000, 875.000000)">
                <path d="M91.9196013,58.3170441 L90.5551332,39.0178784 C89.2956241,27.8998808 80.2691425,19.5089392 69.5633154,19.5089392 L47.8367841,19.5089392 L47.8367841,15.3134684 C47.8367841,15.3134684 47.9417431,14.6841478 48.4665386,14.0548272 C49.3062113,13.215733 50.8805976,12.6912992 53.0847385,12.6912992 L68.7236427,12.6912992 C71.452579,12.6912992 73.1319244,11.7473182 74.0765562,10.9082241 C75.3360653,9.75446961 75.9658198,8.28605483 75.9658198,6.50297974 C75.9658198,3.25148987 73.3418426,0 68.9335609,0 L26.8449663,0 C25.7953754,0 24.9557027,0.83909416 24.9557027,1.88796186 C24.9557027,2.93682956 25.7953754,3.77592372 26.8449663,3.77592372 L69.03852,3.77592372 C71.2426608,3.77592372 72.3972108,5.13945173 72.3972108,6.60786651 C72.3972108,7.02741359 72.2922517,7.65673421 71.6624972,8.18116806 C71.0327427,8.70560191 70.0881109,9.02026222 68.8286018,9.02026222 L53.0847385,9.02026222 C49.8310067,9.02026222 47.4169477,9.85935638 45.8425614,11.4326579 C44.1632159,13.1108462 44.1632159,15.1036949 44.1632159,15.3134684 L44.1632159,19.4040524 L22.4366846,19.4040524 C11.8358166,19.4040524 2.80933497,27.794994 1.44486682,39.0178784 L0.0803986618,58.3170441 C-0.024560427,62.0929678 -0.549355871,81.3921335 3.4390895,85.5876043 C4.69859857,87.0560191 7.2176167,88 9.73663483,88 C12.255653,88 14.669712,87.0560191 16.6639347,85.272944 C21.9118891,80.7628129 26.4251299,73.8402861 30.6234935,63.9809297 L61.2715474,63.9809297 C65.3649519,73.8402861 69.9831518,80.8676996 75.2311062,85.272944 C77.330288,87.0560191 79.744347,88 82.1584061,88 C84.5724651,88 87.0914833,87.0560191 88.5609105,85.5876043 C92.5493559,81.4970203 92.0245604,62.1978546 91.9196013,58.3170441 Z M37.5507934,23.0750894 L54.3442476,23.0750894 L54.3442476,27.375447 C54.3442476,28.5292014 53.3996158,29.5780691 52.1401067,29.5780691 L39.7549342,29.5780691 C38.6003842,29.5780691 37.5507934,28.6340882 37.5507934,27.375447 L37.5507934,23.0750894 L37.5507934,23.0750894 Z M85.9369333,82.965435 C85.4121378,83.4898689 84.0476697,84.2240763 82.2633652,84.2240763 C80.5840198,84.2240763 79.1145925,83.5947557 77.7501244,82.4410012 C72.8170472,78.1406436 68.4087655,71.3230036 64.4203201,61.3587604 C64.1054428,60.624553 63.4756883,60.205006 62.7409747,60.205006 L29.3639844,60.205006 C28.6292708,60.205006 27.8945572,60.624553 27.684639,61.3587604 C23.6961936,71.3230036 19.2879119,78.1406436 14.3548347,82.4410012 C12.9903666,83.5947557 11.4159802,84.2240763 9.84159392,84.2240763 C8.05728941,84.2240763 6.58786217,83.4898689 6.16802581,82.965435 C4.06884404,80.9725864 3.33413041,68.7008343 3.75396677,58.5268176 L5.11843492,39.3325387 C6.16802581,30.102503 13.6201211,23.0750894 22.4366846,23.0750894 L33.8772252,23.0750894 L33.8772252,27.375447 C33.8772252,30.6269368 36.5012025,33.2491061 39.7549342,33.2491061 L52.2450658,33.2491061 C55.4987975,33.2491061 58.1227748,30.6269368 58.1227748,27.375447 L58.1227748,23.0750894 L69.5633154,23.0750894 C78.3798789,23.0750894 85.7270151,30.102503 86.8815651,39.227652 L88.2460332,58.4219309 C88.6658696,68.7008343 87.8261969,80.9725864 85.9369333,82.965435 Z" id="Shape" fill="#000000"></path>
                <path d="M32.0769231,40.5107296 L26.4145299,40.5107296 L26.4145299,34.9313305 C26.4145299,33.8583691 25.5598291,33 24.491453,33 L18.4017094,33 C17.3333333,33 16.4786325,33.8583691 16.4786325,34.9313305 L16.4786325,40.6180258 L10.9230769,40.6180258 C9.85470085,40.6180258 9,41.4763948 9,42.5493562 L9,48.6652361 C9.10683761,49.6309013 9.96153846,50.4892704 11.0299145,50.4892704 L16.5854701,50.4892704 L16.5854701,56.0686695 C16.5854701,57.1416309 17.4401709,58 18.508547,58 L24.5982906,58 C25.6666667,58 26.5213675,57.1416309 26.5213675,56.0686695 L26.5213675,50.4892704 L32.0769231,50.4892704 C33.1452991,50.4892704 34,49.6309013 34,48.5579399 L34,42.4420601 C34,41.3690987 33.1452991,40.5107296 32.0769231,40.5107296 Z M30.2606838,46.7339056 L24.7051282,46.7339056 C23.6367521,46.7339056 22.7820513,47.5922747 22.7820513,48.6652361 L22.7820513,54.2446352 L20.4316239,54.2446352 L20.4316239,48.6652361 C20.4316239,47.5922747 19.5769231,46.7339056 18.508547,46.7339056 L12.9529915,46.7339056 L12.9529915,44.3733906 L18.508547,44.3733906 C19.5769231,44.3733906 20.4316239,43.5150215 20.4316239,42.4420601 L20.4316239,36.8626609 L22.7820513,36.8626609 L22.7820513,42.4420601 C22.7820513,43.5150215 23.6367521,44.3733906 24.7051282,44.3733906 L30.2606838,44.3733906 L30.2606838,46.7339056 Z" id="Shape" fill="#FE8C24"></path>
                <path d="M69.0014953,41 C72.3220961,41 75,38.3214286 75,35 C75,31.6785714 72.3220961,29 69.0014953,29 C65.6808945,29 63.0029906,31.6785714 63.0029906,35 C62.8958744,38.3214286 65.6808945,41 69.0014953,41 Z M69.0014953,32.75 C70.2868892,32.75 71.2509346,33.7142857 71.2509346,35 C71.2509346,36.2857143 70.2868892,37.25 69.0014953,37.25 C67.7161014,37.25 66.752056,36.2857143 66.752056,35 C66.752056,33.7142857 67.7161014,32.75 69.0014953,32.75 Z" id="Shape" fill="#000000"></path>
                <path d="M69,48 C65.6785714,48 63,50.6785714 63,54 C63,57.3214286 65.6785714,60 69,60 C72.3214286,60 75,57.3214286 75,54 C75,50.6785714 72.3214286,48 69,48 Z M69,56.25 C67.7142857,56.25 66.75,55.2857143 66.75,54 C66.75,52.7142857 67.7142857,51.75 69,51.75 C70.2857143,51.75 71.25,52.7142857 71.25,54 C71.25,55.2857143 70.1785714,56.25 69,56.25 Z" id="Shape" fill="#000000"></path>
                <path d="M80,39 C76.6785714,39 74,41.6785714 74,45 C74,48.3214286 76.6785714,51 80,51 C83.3214286,51 86,48.3214286 86,45 C86,41.6785714 83.3214286,39 80,39 Z M80,47.3571429 C78.7142857,47.3571429 77.75,46.3928571 77.75,45.1071429 C77.75,43.8214286 78.8214286,42.8571429 80,42.8571429 C81.2857143,42.8571429 82.25,43.8214286 82.25,45.1071429 C82.25,46.3928571 81.2857143,47.3571429 80,47.3571429 Z" id="Shape" fill="#FE8C24"></path>
                <path d="M66,45 C66,41.6785714 63.3214286,39 60,39 C56.6785714,39 54,41.6785714 54,45 C54,48.3214286 56.6785714,51 60,51 C63.3214286,51 66,48.3214286 66,45 Z M60,47.25 C58.7142857,47.25 57.75,46.2857143 57.75,45 C57.75,43.7142857 58.8214286,42.75 60,42.75 C61.2857143,42.75 62.25,43.7142857 62.25,45 C62.25,46.2857143 61.2857143,47.25 60,47.25 Z" id="Shape" fill="#000000"></path>
            </g>
        </g>
    </g>
</svg>