<?xml version="1.0" encoding="UTF-8"?>
<svg width="93px" height="91px" viewBox="0 0 93 91" version="1.1" xmlns="http://www.w3.org/2000/svg" xmlns:xlink="http://www.w3.org/1999/xlink">
    <!-- Generator: Sketch 47.1 (45422) - http://www.bohemiancoding.com/sketch -->
    <title>headphones-2</title>
    <desc>Created with Sketch.</desc>
    <defs></defs>
    <g id="Page-1" stroke="none" stroke-width="1" fill="none" fill-rule="evenodd">
        <g id="Main--Copy" transform="translate(-419.000000, -906.000000)">
            <g id="headphones-2" transform="translate(419.000000, 906.000000)">
                <path d="M88.6461813,53.5299584 C88.8695988,51.7603994 88.9869581,49.9742862 88.9869581,48.1823645 C88.9869581,39.0737679 86.0836905,30.6502837 81.2041494,23.719874 C82.131723,22.4469416 82.6530303,20.931214 82.6492632,19.3242929 C82.6454961,17.3308163 81.8671573,15.4569948 80.4573962,14.0475627 C71.380447,4.9892096 59.3312635,0 46.5292415,0 C33.6866508,0 21.6110977,5.01534784 12.5303815,14.1184263 C9.91573098,16.7409633 9.67927361,20.8321791 11.7760941,23.7477548 C6.90785419,30.6726464 4.01385945,39.0848041 4.01385945,48.1803315 C4.01385945,49.9702203 4.1312188,51.7545909 4.35463624,53.5241499 C0.924265783,57.9310576 -0.701668382,63.6910549 0.285309298,69.5556052 C1.93732332,79.3809705 10.2915707,86.5239712 20.2030753,86.6508869 C21.8623337,89.286493 24.7638626,91 28.0452881,91 C28.5610897,91 29.0864539,90.9570171 29.5984885,90.8713418 C34.6623273,90.0163308 38.0889306,85.1915017 37.237858,80.1166168 L31.7480482,47.4449756 C30.9920221,42.935548 27.1330727,39.6636209 22.574024,39.6636209 C22.056194,39.6636209 21.5328582,39.7066038 21.019085,39.7943121 C18.5664194,40.2087485 16.4209165,41.5545775 14.9795698,43.5852285 C14.2626635,44.595036 13.7654076,45.7131719 13.4933077,46.8853268 C11.3961975,47.646821 9.48193603,48.7164559 7.7983364,50.0509584 C7.76848946,49.4274161 7.74067094,48.8059068 7.74067094,48.1826549 C7.74067094,39.9906394 10.3350371,32.4236182 14.6761741,26.1539252 C15.6463448,26.6055359 16.7005505,26.8651758 17.8031489,26.8651758 C19.7921726,26.8651758 21.663837,26.0885796 23.0718595,24.6776954 C29.3368206,18.3931907 37.6690449,14.9324874 46.5335882,14.9324874 C55.3685742,14.9324874 63.6839916,18.376346 69.9451856,24.628904 C71.3511796,26.030785 73.2173382,26.8053483 75.2008562,26.8053483 C76.2921533,26.8053483 77.3370862,26.5532595 78.2997227,26.1091998 C82.6594054,32.3861534 85.2630444,39.9717618 85.2630444,48.1826549 C85.2630444,48.8079398 85.2352259,49.4314821 85.2053789,50.0529914 C83.5255464,48.7202314 81.6092565,47.6488539 79.5121463,46.8873598 C79.2403362,45.7152049 78.7410518,44.5953264 78.0241456,43.585519 C76.5827988,41.554868 74.437296,40.2090389 71.9846303,39.7946026 C71.4705674,39.7086368 70.945493,39.6639114 70.4276629,39.6639114 C65.8706427,39.6639114 62.0116932,42.9358384 61.2556672,47.4452661 L55.7646983,80.1163263 C54.9136256,85.1915017 58.340229,90.0163308 63.4020393,90.8710513 C63.9140739,90.9570171 64.4394381,90.9997096 64.9552397,90.9997096 C68.2404323,90.9997096 71.1402225,89.2862026 72.799481,86.6505965 C82.7089571,86.5254234 91.0652329,79.3786471 92.7155083,69.5553148 C93.7007473,63.6930879 92.0748131,57.9348331 88.6461813,53.5299584 Z M21.6354389,43.4748671 C21.9501359,43.420848 22.2648328,43.3947098 22.5722853,43.3947098 C25.3063236,43.3947098 27.6193171,45.3600152 28.0716577,48.0647424 L33.5617573,80.7360931 C34.0720532,83.78236 32.0160912,86.6773156 28.9786572,87.1887539 C26.4755705,87.6124838 24.1588099,86.2965685 23.091854,84.1875028 L23.0043416,83.9952415 C22.9000222,83.7692909 22.8238111,83.5659935 22.7528159,83.3644386 C22.6728377,83.1123498 22.5888026,82.8622939 22.544177,82.5974264 L17.0540775,49.9237523 C17.0540775,49.9220097 17.0540775,49.9199768 17.0540775,49.9182342 C17.0094519,49.6495912 17.0074235,49.3861758 17.0001791,49.1192753 C17.0019178,48.9122023 17.0077133,48.6955453 17.0317647,48.4530405 L17.0503104,48.2645548 C17.3670358,45.8958492 19.1642276,43.893079 21.6354389,43.4748671 Z M13.4428867,50.9129395 L16.1265039,66.8810822 L18.8101211,82.8492248 C11.3440378,82.1176444 5.22802166,76.4938564 3.95793265,68.9361289 C3.36563013,65.4083374 3.93561988,61.9293374 5.39000654,58.8981726 C6.23180636,62.1515124 7.44596857,65.3040749 9.0272772,68.264376 C9.51526029,69.1696305 10.6401714,69.5111702 11.5489095,69.0279031 C12.4538806,68.5388276 12.7966858,67.4096555 12.3107311,66.5006255 C10.3347473,62.808744 8.99018585,58.791877 8.2935639,54.6501273 C9.73693907,53.1117466 11.4669029,51.8295206 13.4428867,50.9129395 Z M72.5722964,21.9840043 C65.6072361,15.0294893 56.3570008,11.1993655 46.53127,11.1993655 C36.6719251,11.1993655 27.4031441,15.0480765 20.4360553,22.0383137 C19.0280328,23.4494884 16.5753672,23.4494884 15.1673447,22.0383137 C13.7164354,20.5824137 13.7146967,18.215741 15.1656061,16.7598409 C23.542456,8.360462 34.6811627,3.73341227 46.53127,3.73341227 C58.3422574,3.73341227 69.4586514,8.33635673 77.8297057,16.6927528 C78.5356005,17.3964523 78.9247699,18.3333631 78.9265086,19.3321344 C78.9282473,20.3306153 78.5428449,21.2678165 77.8389786,21.9750011 C76.4367516,23.3855949 73.9820576,23.393146 72.5722964,21.9840043 Z M64.0186831,87.1887539 C60.9812491,86.6773156 58.9270257,83.78236 59.4373216,80.7360931 L64.9274212,48.0647424 C65.3800516,45.3603056 67.6930451,43.3947098 70.4250549,43.3947098 C70.7342461,43.3947098 71.0489431,43.420848 71.36364,43.4748671 C73.8348513,43.893079 75.6303045,45.8920736 75.9467401,48.2587463 L75.9673142,48.4527501 C75.9916554,48.6952549 75.9988998,48.9101693 75.9988998,49.1189849 C75.9933941,49.3858853 75.9913656,49.6510433 75.9467401,49.9234619 L70.4566405,82.59307 C70.4549019,82.6006211 70.4511348,82.6099147 70.4511348,82.6174657 C70.4065093,82.8750726 70.3262413,83.1158349 70.2500301,83.3565971 C70.1793247,83.558152 70.1010852,83.7655154 69.9967657,83.9932085 L69.8924463,84.2171261 C68.8196949,86.3113802 66.5180026,87.6104508 64.0186831,87.1887539 Z M89.0411463,68.9361289 C87.7710573,76.4918234 81.6550411,82.119387 74.1906964,82.8471918 L76.8743137,66.8810822 L79.5561922,50.9149725 C81.532176,51.8295206 83.2621399,53.1137795 84.7037764,54.6480944 C84.0054158,58.8049462 82.6515814,62.8366248 80.6663248,66.543318 C80.1783417,67.450315 80.5191185,68.583553 81.426118,69.0705956 C81.7054622,69.221907 82.0091476,69.2927707 82.3050091,69.2927707 C82.968017,69.2927707 83.6104508,68.9381618 83.9474605,68.3091015 C85.5415193,65.3339887 86.7652441,62.1663241 87.610811,58.8981726 C89.063459,61.929047 89.6334488,65.4083374 89.0411463,68.9361289 Z" id="Shape" fill="#000000" fill-rule="nonzero"></path>
                <path d="M72.6385814,22.0046857 C65.6656283,15.0422899 56.4049107,11.2078259 46.5680454,11.2078259 C36.697528,11.2078259 27.4182437,15.0608982 20.4432599,22.0590567 C19.0336418,23.4718305 16.5781969,23.4718305 15.1685789,22.0590567 C13.7160253,20.6015068 13.7142847,18.2321523 15.1668382,16.7746024 C23.5531807,8.36570534 34.7045097,3.73341227 46.5680454,3.73341227 C58.392417,3.73341227 69.521408,8.34157276 77.9019484,16.7074382 C78.6086431,17.4119352 78.9982535,18.3499077 78.9999941,19.3498108 C79.0017348,20.3494231 78.6158957,21.2876863 77.9112317,21.9956724 C76.5074158,23.4078646 74.0499401,23.4154242 72.6385814,22.0046857 Z" id="Path" stroke="#FE8C24" stroke-width="2"></path>
            </g>
        </g>
    </g>
</svg>