<?xml version="1.0" encoding="UTF-8"?>
<svg width="51px" height="91px" viewBox="0 0 51 91" version="1.1" xmlns="http://www.w3.org/2000/svg" xmlns:xlink="http://www.w3.org/1999/xlink">
    <!-- Generator: Sketch 47.1 (45422) - http://www.bohemiancoding.com/sketch -->
    <title>smartphone</title>
    <desc>Created with Sketch.</desc>
    <defs></defs>
    <g id="Page-1" stroke="none" stroke-width="1" fill="none" fill-rule="evenodd">
        <g id="Main--Copy" transform="translate(-669.000000, -899.000000)" fill-rule="nonzero">
            <g id="smartphone" transform="translate(669.000000, 899.000000)">
                <path d="M44.3925,0 L6.6075,0 C2.964,0 0,2.99845 0,6.68091667 L0,84.3175667 C0,88.00155 2.964,91 6.6075,91 L44.391,91 C48.036,91 51,88.00155 51,84.3190833 L51,6.68091667 C51,2.99845 48.036,0 44.3925,0 Z M3,12.1333333 L48,12.1333333 L48,69.7666667 L3,69.7666667 L3,12.1333333 Z M6.6075,3.03333333 L44.391,3.03333333 C46.3815,3.03333333 48,4.66981667 48,6.68091667 L48,9.1 L3,9.1 L3,6.68091667 C3,4.66981667 4.6185,3.03333333 6.6075,3.03333333 Z M44.3925,87.9666667 L6.6075,87.9666667 C4.6185,87.9666667 3,86.3301833 3,84.3190833 L3,72.8 L48,72.8 L48,84.3190833 C48,86.3301833 46.3815,87.9666667 44.3925,87.9666667 Z" id="Shape" fill="#000000"></path>
                <path d="M26,74 C22.691,74 20,76.691 20,80 C20,83.309 22.691,86 26,86 C29.309,86 32,83.309 32,80 C32,76.691 29.309,74 26,74 Z M26,83 C24.3455,83 23,81.6545 23,80 C23,78.3455 24.3455,77 26,77 C27.6545,77 29,78.3455 29,80 C29,81.6545 27.6545,83 26,83 Z" id="Shape" fill="#FE8C24"></path>
                <path d="M19.5,8 L25.5,8 C26.328,8 27,7.3295 27,6.5 C27,5.6705 26.328,5 25.5,5 L19.5,5 C18.672,5 18,5.6705 18,6.5 C18,7.3295 18.672,8 19.5,8 Z" id="Shape" fill="#000000"></path>
                <path d="M29.6666667,8 L31.3333333,8 C32.2533333,8 33,7.3295 33,6.5 C33,5.6705 32.2533333,5 31.3333333,5 L29.6666667,5 C28.7466667,5 28,5.6705 28,6.5 C28,7.3295 28.7466667,8 29.6666667,8 Z" id="Shape" fill="#000000"></path>
                <path d="M28.943,17 L23.057,17 C21.371,17 20,18.371 20,20.057 L20,25.943 C20,27.629 21.371,29 23.057,29 L28.943,29 C30.629,29 32,27.629 32,25.943 L32,20.057 C32,18.371 30.629,17 28.943,17 Z M29,25.9415 C29,25.973 28.9745,25.9985 28.943,25.9985 L23,25.9415 L23.057,19.9985 L29,20.057 L29,25.9415 Z" id="Shape" fill="#FE8C24"></path>
                <path d="M14.943,17 L9.057,17 C7.371,17 6,18.371 6,20.057 L6,25.943 C6,27.629 7.371,29 9.057,29 L14.943,29 C16.629,29 18,27.629 18,25.943 L18,20.057 C18,18.371 16.629,17 14.943,17 Z M15,25.9415 C15,25.973 14.9745,25.9985 14.943,25.9985 L9,25.9415 L9.057,19.9985 L15,20.057 L15,25.9415 Z" id="Shape" fill="#000000"></path>
                <path d="M41.943,17 L36.057,17 C34.371,17 33,18.371 33,20.057 L33,25.943 C33,27.629 34.371,29 36.057,29 L41.943,29 C43.629,29 45,27.629 45,25.943 L45,20.057 C45,18.371 43.629,17 41.943,17 Z M42,25.9415 C42,25.973 41.9745,25.9985 41.943,25.9985 L36,25.9415 L36.057,19.9985 L42,20.057 L42,25.9415 Z" id="Shape" fill="#000000"></path>
                <path d="M28.943,30 L23.057,30 C21.371,30 20,31.371 20,33.057 L20,38.943 C20,40.629 21.371,42 23.057,42 L28.943,42 C30.629,42 32,40.629 32,38.943 L32,33.057 C32,31.371 30.629,30 28.943,30 Z M29,38.943 C29,38.973 28.9745,39 28.943,39 L23,38.943 L23.057,33 L29,33.057 L29,38.943 Z" id="Shape" fill="#000000"></path>
                <path d="M14.943,30 L9.057,30 C7.371,30 6,31.371 6,33.057 L6,38.943 C6,40.629 7.371,42 9.057,42 L14.943,42 C16.629,42 18,40.629 18,38.943 L18,33.057 C18,31.371 16.629,30 14.943,30 Z M15,38.943 C15,38.973 14.9745,39 14.943,39 L9,38.943 L9.057,33 L15,33.057 L15,38.943 Z" id="Shape" fill="#FE8C24"></path>
                <path d="M41.943,30 L36.057,30 C34.371,30 33,31.371 33,33.057 L33,38.943 C33,40.629 34.371,42 36.057,42 L41.943,42 C43.629,42 45,40.629 45,38.943 L45,33.057 C45,31.371 43.629,30 41.943,30 Z M42,38.943 C42,38.973 41.9745,39 41.943,39 L36,38.943 L36.057,33 L42,33.057 L42,38.943 Z" id="Shape" fill="#000000"></path>
                <path d="M28.943,44 L23.057,44 C21.371,44 20,45.371 20,47.057 L20,52.943 C20,54.629 21.371,56 23.057,56 L28.943,56 C30.629,56 32,54.629 32,52.943 L32,47.057 C32,45.371 30.629,44 28.943,44 Z M29,52.943 C29,52.973 28.9745,53 28.943,53 L23,52.943 L23.057,47 L29,47.057 L29,52.943 Z" id="Shape" fill="#FE8C24"></path>
                <path d="M14.943,44 L9.057,44 C7.371,44 6,45.371 6,47.057 L6,52.943 C6,54.629 7.371,56 9.057,56 L14.943,56 C16.629,56 18,54.629 18,52.943 L18,47.057 C18,45.371 16.629,44 14.943,44 Z M15,52.943 C15,52.973 14.9745,53 14.943,53 L9,52.943 L9.057,47 L15,47.057 L15,52.943 Z" id="Shape" fill="#000000"></path>
                <path d="M41.943,44 L36.057,44 C34.371,44 33,45.371 33,47.057 L33,52.943 C33,54.629 34.371,56 36.057,56 L41.943,56 C43.629,56 45,54.629 45,52.943 L45,47.057 C45,45.371 43.629,44 41.943,44 Z M42,52.943 C42,52.973 41.9745,53 41.943,53 L36,52.943 L36.057,47 L42,47.057 L42,52.943 Z" id="Shape" fill="#000000"></path>
            </g>
        </g>
    </g>
</svg>