<?xml version="1.0" encoding="UTF-8"?>
<svg width="71px" height="89px" viewBox="0 0 71 89" version="1.1" xmlns="http://www.w3.org/2000/svg" xmlns:xlink="http://www.w3.org/1999/xlink">
    <!-- Generator: Sketch 47.1 (45422) - http://www.bohemiancoding.com/sketch -->
    <title>washing-machine-2</title>
    <desc>Created with Sketch.</desc>
    <defs></defs>
    <g id="Page-1" stroke="none" stroke-width="1" fill="none" fill-rule="evenodd">
        <g id="Main--Copy" transform="translate(-215.000000, -1135.000000)" fill-rule="nonzero">
            <g id="washing-machine-2" transform="translate(215.000000, 1135.000000)">
                <path d="M66.5625,0 L4.4375,0 C1.98664795,0 0,1.99224414 0,4.45 L0,84.55 C0,87.007582 1.98664795,89 4.4375,89 L66.5625,89 C69.0131787,89 71,87.0077559 71,84.55 L71,4.45 C71,1.99224414 69.0131787,0 66.5625,0 Z M68.0416089,84.55 C68.0416089,85.369252 67.3794507,86.0332754 66.5625,86.0332754 L4.4375,86.0332754 C3.62054932,86.0332754 2.95839111,85.369252 2.95839111,84.55 L2.95839111,4.45 C2.95839111,3.63074805 3.62054932,2.96672461 4.4375,2.96672461 L66.5625,2.96672461 C67.3794507,2.96672461 68.0416089,3.63074805 68.0416089,4.45 L68.0416089,84.55 Z" id="Shape" fill="#000000"></path>
                <path d="M69.5210608,21 L1.4791125,21 C0.66215982,21 0,21.6715106 0,22.5 C0,23.3284894 0.66215982,24 1.4791125,24 L69.5208875,24 C70.3378402,24 71,23.3284894 71,22.5 C71,21.6715106 70.3378402,21 69.5210608,21 Z" id="Shape" fill="#000000"></path>
                <path d="M36,28 C22.1929315,28 11,39.4167902 11,53.5 C11,67.5832098 22.1929315,79 36,79 C49.8070685,79 61,67.5832098 61,53.5 C61,39.4167902 49.8070685,28 36,28 Z M36,75.9999483 C23.8173534,75.9999483 13.9412272,65.9262996 13.9412272,53.5 C13.9412272,41.0737004 23.8173534,31.0000517 36,31.0000517 C48.1826466,31.0000517 58.0587728,41.0737004 58.0587728,53.5 C58.0587728,65.9262996 48.1826466,75.9999483 36,75.9999483 Z" id="Shape" fill="#000000"></path>
                <path d="M51.543846,57.3846277 L46.7058808,57.3846277 L46.7058808,48.6153722 L51.543846,48.6153722 C51.7060536,48.6146871 51.8672334,48.5871119 52.0203629,48.5335029 C52.782413,48.2671711 53.1840781,47.433578 52.9177288,46.6715776 C50.2336815,39.0738398 43.0485881,33.9952077 34.9901087,34.0000034 C24.4959464,34.0061693 15.9938371,42.5178279 16.0000034,53.011304 C16.0061696,63.5047802 24.5185561,72.0063336 35.0127184,71.9999965 C43.0629761,71.9952008 50.2364221,66.9184527 52.9177288,59.3284222 C52.9713412,59.1753028 52.9989182,59.0141335 52.9996033,58.8519365 C53.0028578,58.0447197 52.3511156,57.3878819 51.543846,57.3846277 Z M34.9894236,69.0770255 C26.1098005,69.0706883 18.9166566,61.867567 18.9229942,52.9883533 C18.9293318,44.1093108 26.1329241,36.9166372 35.0127184,36.9229744 C41.0508827,36.9272562 46.5775878,40.3142099 49.3220989,45.6922299 L46.7057095,45.6922299 C45.0911703,45.6922299 43.7823761,47.0009385 43.7823761,48.6153722 L43.7823761,57.3846277 C43.7823761,58.9990613 45.0911703,60.30777 46.7057095,60.30777 L49.3220989,60.30777 C46.5736482,65.6931547 41.0359808,69.0813073 34.9894236,69.0770255 Z" id="Shape" fill="#000000"></path>
                <path d="M13.5000293,80 L7.4999707,80 C6.67149749,80 6,80.6715106 6,81.5 C6,82.3284894 6.67149749,83 7.4999707,83 L13.5000293,83 C14.3285025,83 15,82.3284894 15,81.5 C15,80.6715106 14.3285025,80 13.5000293,80 Z" id="Shape" fill="#000000"></path>
                <path d="M59,6 C55.6863153,6 53,8.6863153 53,12 C53,15.3136847 55.6863153,18 59,18 C62.3136847,18 65,15.3136847 65,12 C65,8.6863153 62.3138605,6 59,6 Z M59,15.0000879 C57.3430698,15.0000879 55.9999121,13.6569302 55.9999121,12 C55.9999121,10.3430698 57.3432455,9.00008789 59,9.00008789 C60.6569302,9.00008789 62.0000879,10.3432455 62.0000879,12.0001758 C62.0000879,13.657106 60.6569302,15.0000879 59,15.0000879 Z" id="Shape" fill="#000000"></path>
                <path d="M45,6 C41.6863153,6 39,8.68627595 39,11.9999121 C39,15.3135483 41.6863153,18 45,18 C48.3136847,18 51,15.3137241 51,12.0000879 C51,8.68645173 48.3136847,6 45,6 Z M45,14.9999561 C43.3430698,14.9999561 41.9999121,13.6568181 41.9999121,11.9999121 C41.9999121,10.3430061 43.3430698,9.00004395 45,9.00004395 C46.6569302,9.00004395 48.0000879,10.3431819 48.0000879,12.0000879 C48.0000879,13.6569939 46.6569302,14.9999561 45,14.9999561 Z" id="Shape" fill="#FE8C24"></path>
                <path d="M26.5,2 C25.6715106,2 25,2.6565625 25,3.46660937 L25,22.5333906 C25,23.3434375 25.6715106,24 26.5,24 C27.3284894,24 28,23.3434375 28,22.5333906 L28,3.46678125 C28,2.65673438 27.3284894,2 26.5,2 Z" id="Shape" fill="#000000"></path>
                <path d="M20.5453461,10 C19.7419967,10 19.0908626,10.6266992 19.0908626,11.3999016 L19.0908626,14.1998688 L8.90896694,14.1998688 L8.90896694,11.4000656 C8.90896694,10.6268632 8.25783289,10.0001641 7.45448347,10.0001641 C6.65113405,10.0001641 6,10.6268632 6,11.4000656 L6,14.2000328 C6,15.7464376 7.30243856,17 8.9091374,17 L19.0908626,17 C20.6975614,17 22,15.7464376 22,14.2000328 L22,11.4000656 C21.9998295,10.6268632 21.3486955,10 20.5453461,10 Z" id="Shape" fill="#000000"></path>
                <path d="M43.9049303,52.3723642 C42.8143994,52.1267153 41.702374,52.0027227 40.5871876,52.0020552 C37.8230869,51.9538266 35.1052942,52.7553562 32.7649201,54.3090186 C30.8651836,55.556955 28.6629434,56.1952749 26.4260907,56.146045 C24.1938213,56.192438 21.9966387,55.5542849 20.1008534,54.3090186 C19.4789347,53.8724578 18.639542,54.0510205 18.2262466,54.7076974 C17.8127931,55.3643743 17.9819045,56.2506795 18.6038232,56.6870734 C20.9445134,58.2399014 23.662148,59.041431 26.4260907,58.9940368 C29.2061542,59.0766429 31.9484443,58.2994779 34.3158447,56.7583316 C36.2116299,55.5130653 38.4088126,54.8749122 40.6410819,54.9213051 C41.547487,54.9231408 42.4513632,55.0234363 43.3384864,55.2203559 C44.0833664,55.3855682 44.8140221,54.8817543 44.9703316,54.0954109 C45.126641,53.3090674 44.6498103,52.5375764 43.9049303,52.3723642 Z" id="Shape" fill="#FE8C24"></path>
            </g>
        </g>
    </g>
</svg>