<?xml version="1.0" encoding="UTF-8"?>
<svg width="444px" height="94px" viewBox="0 0 444 94" version="1.1" xmlns="http://www.w3.org/2000/svg" xmlns:xlink="http://www.w3.org/1999/xlink">
    <!-- Generator: Sketch 47.1 (45422) - http://www.bohemiancoding.com/sketch -->
    <title>Asset 4</title>
    <desc>Created with Sketch.</desc>
    <defs>
        <radialGradient cx="50%" cy="50%" fx="50%" fy="50%" r="50%" id="radialGradient-1">
            <stop stop-color="#FF931E" offset="0%"></stop>
            <stop stop-color="#FFC587" offset="44%"></stop>
            <stop stop-color="#FFEFDD" offset="83%"></stop>
            <stop stop-color="#FFFFFF" offset="100%"></stop>
        </radialGradient>
    </defs>
    <g id="Page-1" stroke="none" stroke-width="1" fill="none" fill-rule="evenodd">
        <g id="Main--Copy" transform="translate(-498.000000, -115.000000)" fill-rule="nonzero">
            <g id="Asset-4" transform="translate(498.000000, 114.000000)">
                <circle id="Oval" fill="url(#radialGradient-1)" cx="161.98" cy="55.15" r="38.5"></circle>
                <path d="M192.48,55.22 L192.48,55.22 C175.559783,55.3245413 161.903169,69.0794682 161.92,86 C161.92,69.0117211 148.148279,55.24 131.16,55.24 C148.072709,55.2402898 161.810999,41.5824196 161.91,24.67 L161.91,24.67 C161.970399,41.5250179 175.624946,55.1706313 192.48,55.22 Z" id="Shape" fill="#FFFFFF"></path>
                <path d="M65.49,30.73 C65.5247796,34.8456724 64.7324391,38.9263959 63.16,42.73 C61.6450154,46.3632075 59.4062185,49.6499518 56.58,52.39 C53.5901603,55.2277791 50.0460127,57.4169115 46.17,58.82 C41.783332,60.4244916 37.1404537,61.2141198 32.47,61.15 L17.81,61.15 L17.81,93.35 L0,93.35 L0,1 L33.29,1 C37.9151061,0.932577231 42.5126814,1.72257356 46.85,3.33 C50.6241338,4.72286594 54.0769277,6.86597937 57,9.63 C59.7498185,12.2947345 61.8978676,15.5168082 63.3,19.08 C64.7692179,22.7872846 65.512686,26.7422631 65.49,30.73 L65.49,30.73 Z M47.68,30.73 C47.68,26.3366667 46.4466667,22.8433333 43.98,20.25 C41.5133333,17.6566667 37.95,16.3533333 33.29,16.34 L17.81,16.34 L17.81,45.8 L32.47,45.8 C37.2233333,45.8 40.9433333,44.4666667 43.63,41.8 C46.3166667,39.1333333 47.6666667,35.4433333 47.68,30.73 L47.68,30.73 Z" id="Shape" fill="#FFFFFF"></path>
                <path d="M90.56,36.89 C91.2975701,35.4161828 92.1432134,33.9989781 93.09,32.65 C94.0373603,31.2850405 95.1679542,30.0568655 96.45,29 C97.7650542,27.9249568 99.243775,27.0674338 100.83,26.46 C102.624395,25.7784412 104.53064,25.4392518 106.45,25.46 C108.300951,25.4412881 110.138041,25.7808611 111.86,26.46 C113.383274,27.0831972 114.78473,27.9701088 116,29.08 L112.34,45 C109.709927,42.9979861 106.462348,41.979138 103.16,42.12 C100.675143,42.1253579 98.224992,42.7036757 96,43.81 C93.6546918,44.9747517 91.7547517,46.8746918 90.59,49.22 L90.59,93.34 L73,93.34 L73,27.17 L88.36,27.17 L90.56,36.89 Z" id="Shape" fill="#FFFFFF"></path>
                <path d="M246.29,77.9 C253.93,71.1533333 260.5,65.2733333 266,60.26 C271.5,55.2466667 275.803333,51.3033333 278.91,48.43 C282.036667,45.5633333 284.79,43.13 287.17,41.13 C289.55,39.13 291.073333,38.13 291.74,38.13 C293.01,38.07 294.23,39.39 295.39,42.07 C296.378508,44.084886 296.969289,46.2714545 297.13,48.51 C297.13,49.5566667 295.373333,52.0333333 291.86,55.94 C288.346667,59.8466667 285.716667,62.9566667 283.97,65.27 C282.314207,67.3502407 281.39616,69.9214771 281.36,72.58 C281.306861,73.9429691 281.850991,75.2612973 282.85,76.19 C283.818973,77.0896814 285.097912,77.5804785 286.42,77.56 C288.033333,77.56 289.956667,76.73 292.19,75.07 C294.423333,73.41 297.953333,70.45 302.78,66.19 L302.78,72.08 C297.96,76.62 293.586667,80.5366667 289.66,83.83 C286.470452,86.5910006 283.040089,89.0608622 279.41,91.21 C276.496667,92.8366667 274.076667,93.6533333 272.15,93.66 C270.482985,93.6746885 268.897346,92.9405963 267.83,91.66 C266.654442,90.3233695 266.032249,88.5890959 266.09,86.81 C266.10452,84.8578737 266.44243,82.9216464 267.09,81.08 C267.946358,78.7125132 268.972353,76.4098731 270.16,74.19 C271.546667,71.5233333 273.373333,68.3266667 275.64,64.6 L281.87,54.35 C276.223333,58.9433333 271.223333,63.37 266.87,67.63 C262.516667,71.89 258.92,75.6333333 256.08,78.86 C253.32,82.04 251.136667,84.5433333 249.53,86.37 C246.43,89.7966667 243.55,91.51 240.89,91.51 C238.02,91.51 236.58,89.51 236.58,85.37 C236.58,83.71 237.66,80.7366667 239.82,76.45 C241.98,72.1633333 245.04,66.6966667 249,60.05 C249.38014,59.4297232 249.555096,58.7054062 249.5,57.98 C249.564113,57.5230724 249.409969,57.0625542 249.083707,56.7362926 C248.757446,56.410031 248.296928,56.2558867 247.84,56.32 C246.62,56.32 244.863333,57.4666667 242.57,59.76 C240.276667,62.0533333 235.843333,66.8566667 229.27,74.17 C227.056385,76.7143861 224.992889,79.3855786 223.09,82.17 C221.559977,84.4517332 219.911033,86.6514366 218.15,88.76 C217.436002,89.7198677 216.342518,90.3249289 215.15,90.42 C213.15,90.42 211.296667,88.65 209.59,85.11 C207.796716,81.240984 206.910854,77.0134735 207,72.75 C206.921234,69.7021694 207.501098,66.6732321 208.7,63.87 C210.248054,60.653627 212.019036,57.5493953 214,54.58 C216.686551,50.4872678 219.7283,46.6390706 223.09,43.08 C225.002909,40.9789365 227.68054,39.7356216 230.52,39.63 C231.941426,39.5957303 233.346304,39.9409091 234.59,40.63 C235.594892,41.113256 236.238381,42.1250075 236.25,43.24 C236.25,44.41 235.25,46.31 233.25,48.97 C230.94438,51.937066 228.373802,54.6883883 225.57,57.19 C223.763804,58.9721462 222.175985,60.9627946 220.84,63.12 C219.34,65.48 218.6,67.18 218.6,68.23 C218.6,69.72 219.18,70.47 220.34,70.47 C221.28,70.47 223.66,68.5333333 227.48,64.66 C231.3,60.7866667 235.473333,56.5666667 240,52 C243.992015,47.948794 248.233638,44.151373 252.7,40.63 C256.6,37.61 259.906667,36.1 262.62,36.1 C264.202675,36.0678955 265.714415,36.7557191 266.73,37.97 C267.823372,39.2523864 268.400793,40.8955427 268.35,42.58 C268.35,43.8 267.52,46 265.86,49.18 C263.660827,53.241774 261.237071,57.1778731 258.6,60.97 C255.426667,65.61 251.323333,71.2533333 246.29,77.9 Z" id="Shape" fill="#FFFFFF"></path>
                <path d="M341.83,66.53 L341.83,72.59 C336.456667,79.51 331.456667,84.7233333 326.83,88.23 C322.203333,91.7366667 318.246667,93.4966667 314.96,93.51 C310.42,93.51 307.043333,91.13 304.83,86.37 C302.588558,81.4742284 301.454946,76.1442 301.51,70.76 C301.501136,68.6819495 301.722486,66.6093111 302.17,64.58 C302.519958,62.9077872 303.049704,61.2783168 303.75,59.72 C304.356667,58.4533333 305.49,56.4533333 307.15,53.72 C315.01,41.4933333 322.206667,35.3766667 328.74,35.37 C332.106667,35.37 333.793333,36.67 333.8,39.27 C333.8,41.0433333 332.706667,43.81 330.52,47.57 C328.942894,50.4903009 326.974746,53.181786 324.67,55.57 C321.360505,58.641325 318.216096,61.8858745 315.25,65.29 C313.807915,67.0400417 313.02893,69.2424438 313.05,71.51 C313.00947,73.4281695 313.831626,75.2633397 315.29,76.51 C316.904582,77.8864978 318.98025,78.6010133 321.1,78.51 C324.171197,78.3612064 327.142563,77.371904 329.69,75.65 C333.949065,72.9035236 338.006096,69.8557372 341.83,66.53 Z M336.19,29.42 C334.725864,29.3962089 333.32097,28.8378079 332.24,27.85 C331.033546,26.877017 330.346524,25.3995501 330.38,23.85 C330.38,21.4233333 331.54,18.7133333 333.86,15.72 C336.19,12.72 338.59,11.24 341.08,11.24 C342.612816,11.1899458 344.104889,11.7387127 345.24,12.77 C346.401563,13.9453121 347.0056,15.5609288 346.9,17.21 C346.9,19.59 345.763333,22.22 343.49,25.1 C341.22,28 338.79,29.42 336.19,29.42 Z" id="Shape" fill="#FFFFFF"></path>
                <path d="M340.75,68.85 L340.75,66.85 C355.03,51.8033333 364.853333,41.26 370.22,35.22 C371.406667,28.4066667 374.333333,25 379,25 C380.304015,25.0398624 381.580929,25.3821985 382.73,26 L383.23,27.58 C382.976934,28.4976904 382.865648,29.4486756 382.9,30.4 C383.079231,32.388849 383.481765,34.3512032 384.1,36.25 C384.91,39.1 385.53,41.5 385.97,43.43 C386.435731,45.5850832 386.660444,47.7852617 386.64,49.99 C386.640872,53.6363681 385.788121,57.2323073 384.15,60.49 C382.305326,64.0878926 379.860235,67.3446314 376.92,70.12 C373.172829,73.6533505 369.086393,76.8086147 364.72,79.54 C366.281404,79.8284582 367.862794,79.9956242 369.45,80.04 C371.989943,79.9777089 374.49066,79.3993118 376.8,78.34 C379.628746,77.0883873 382.325455,75.5574606 384.85,73.77 C387.59,71.8566667 390.786667,69.38 394.44,66.34 L394.44,71.9 C388.647514,77.7643019 382.282437,83.0339162 375.44,87.63 C369.86,91.21 365.046667,93 361,93 C355.793333,93 350.976667,90.7866667 346.55,86.36 C343.95,83.6933333 342.333333,81.1466667 341.7,78.72 C340.979361,75.4814729 340.660293,72.1665238 340.75,68.85 L340.75,68.85 Z M371.75,56.15 L370.22,44 C366.793333,47.88 359.46,55.3233333 348.22,66.33 C351.553333,67.05 353.823333,68.02 355.03,69.24 C356.962013,71.4069705 358.68625,73.7505935 360.18,76.24 C363.580393,74.9809557 366.576411,72.8246523 368.85,70 C370.85,67.3333333 371.85,63.6666667 371.85,59 C371.85,58.45 371.85,58 371.85,57.51 C371.85,57.02 371.77,56.6 371.71,56.15 L371.75,56.15 Z" id="Shape" fill="#FFFFFF"></path>
                <path d="M407.41,69.52 L407.41,71.59 C407.41,74.86 408.21,77.4 409.82,79.23 C411.400975,81.044435 413.714769,82.0507516 416.12,81.97 C419.032043,81.9247806 421.902846,81.2743378 424.55,80.06 C427.615937,78.6946695 430.523245,76.9979019 433.22,75 C436.1,72.8933333 439.616667,70.07 443.77,66.53 L443.77,71.59 C437.51,79.1233333 431.643333,84.8933333 426.17,88.9 C420.696667,92.9066667 415.133333,94.9066667 409.48,94.9 C404.870202,95.0525906 400.48572,92.9053186 397.78,89.17 C394.9,85.35 393.46,80.12 393.46,73.48 C393.391339,67.9424067 394.795969,62.4860908 397.53,57.67 C400.243333,52.9433333 404.67,47.9433333 410.81,42.67 C414.571384,39.3605894 418.795973,36.6183118 423.35,34.53 C426.828295,32.8602723 430.614142,31.9274288 434.47,31.79 C436.673016,31.6717931 438.851188,32.3026876 440.65,33.58 C442.250592,34.9058171 443.105058,36.9281794 442.94,39 C442.805669,42.802514 441.420784,46.4545335 439,49.39 C436.4,52.85 432.43,56.28 427.09,59.68 C420.83771,63.5423701 414.25127,66.8355902 407.41,69.52 L407.41,69.52 Z M408.24,64.12 C412.843079,62.3918872 417.148225,59.9559031 421,56.9 C424.028361,54.5695018 426.676563,51.7829862 428.85,48.64 C430.53,46.01 431.38,44.09 431.38,42.87 C431.38,41.65 430.82,41 429.65,41 C428.663333,41 427.046667,41.6366667 424.8,42.91 C422.359862,44.3315971 420.077133,46.0076098 417.99,47.91 C415.624801,50.0376877 413.547271,52.4648336 411.81,55.13 C410.003697,57.8436642 408.787447,60.9064342 408.24,64.12 L408.24,64.12 Z" id="Shape" fill="#FFFFFF"></path>
            </g>
        </g>
    </g>
</svg>